<svg xmlns="http://www.w3.org/2000/svg" viewBox="0 0 1440 320"><path fill="#0099ff" fill-opacity="1" d="M0,224L30,197.3C60,171,120,117,180,117.3C240,117,300,171,360,181.3C420,192,480,160,540,170.7C600,181,660,235,720,213.3C780,192,840,96,900,90.7C960,85,1020,171,1080,192C1140,213,1200,171,1260,138.7C1320,107,1380,85,1410,74.7L1440,64L1440,0L1410,0C1380,0,1320,0,1260,0C1200,0,1140,0,1080,0C1020,0,960,0,900,0C840,0,780,0,720,0C660,0,600,0,540,0C480,0,420,0,360,0C300,0,240,0,180,0C120,0,60,0,30,0L0,0Z"></path></svg>